<svg width="43" height="43" viewBox="0 0 43 43" fill="none" xmlns="http://www.w3.org/2000/svg">
<g clip-path="url(#clip0)">
<path d="M31.9403 22.4493C31.6386 22.1483 31.286 21.8945 30.9049 21.6985L30.4316 20.0977L20.9507 20.0316L20.5874 21.3195C20.0348 21.4317 19.3556 21.7788 18.9391 22.1672L14.666 17.4993C13.6993 17.929 13.0224 18.8923 13.0224 20.0174V21.1507L8.28906 26.0689L8.308 28.652L20.1224 41.3182C20.1224 41.3182 32.5687 23.2698 32.5983 23.3052C32.448 23.0408 31.9936 22.4753 31.9403 22.4493V22.4493Z" fill="#EF9645"/>
<path d="M29.0874 21.2498H21.2999C21.0537 21.2498 20.8135 21.2746 20.5816 21.3219L20.4952 20.9937L16.6222 6.27922C16.6222 6.27922 16.1299 3.96887 18.4445 3.47894C20.7591 2.98783 21.2514 5.29699 21.2514 5.29699L24.9161 18.9548C25.4439 18.9832 25.9551 19.0292 26.4604 19.0812L28.8992 6.67116C28.8992 6.67116 29.1217 4.32067 31.4789 4.54144C33.8349 4.76338 33.6125 7.11387 33.6125 7.11387L31.1689 20.29L30.9074 21.6996C30.3583 21.4222 29.7453 21.2498 29.0874 21.2498ZM10.5505 18.8887H10.7493C12.0024 18.8887 13.0165 19.9016 13.0165 21.1519V26.07C13.0165 27.3203 12.0024 28.3332 10.7493 28.3332H10.5505C9.29732 28.3332 8.2832 27.3203 8.2832 26.07V21.1519C8.2832 19.9016 9.29732 18.8887 10.5505 18.8887ZM18.7368 22.3832L18.6705 22.4564C18.1096 23.0809 17.7499 23.886 17.7499 24.7915C17.7499 24.8659 17.7653 24.9367 17.7712 25.0099C17.8232 25.8103 18.1356 26.5352 18.6326 27.1042C18.5486 27.2565 18.4398 27.3911 18.3262 27.521C17.8931 28.0132 17.273 28.3332 16.5665 28.3332C15.2601 28.3332 14.1999 27.2754 14.1999 25.9721V18.8887C14.1999 18.3681 14.3738 17.8912 14.6602 17.5004C15.0909 16.9137 15.7808 16.5276 16.5665 16.5276C17.8729 16.5276 18.9332 17.5854 18.9332 18.8887V22.1683C18.861 22.2332 18.8042 22.3135 18.7368 22.3832V22.3832Z" fill="#F3E8C1"/>
<path d="M10.7233 29.5138C11.935 29.5138 13.0012 28.8928 13.6224 27.9531C13.768 28.1691 13.9431 28.3615 14.1325 28.5398C15.5347 29.8561 17.7227 29.7723 19.0634 28.4383C19.2433 28.2588 19.422 28.0782 19.5592 27.8622L19.5557 27.8586C19.7935 27.9944 20.1166 28.3332 21.2999 28.3332H24.302C23.8642 28.6626 23.4642 29.0687 23.0903 29.5138C21.6372 31.2456 20.7082 33.7708 20.7082 36.5971C20.7082 36.9229 20.9733 37.1874 21.2999 37.1874C21.6265 37.1874 21.8916 36.9229 21.8916 36.5971C21.8916 33.589 23.0228 30.9599 24.7044 29.5138C25.5706 28.7688 26.5788 28.3332 27.6603 28.3332C28.504 28.4265 28.6626 27.1526 27.8082 27.1526H21.2999C19.9935 27.1526 18.9332 26.0949 18.9332 24.7915C18.9332 23.4882 19.9935 22.4304 21.2999 22.4304H30.7666C31.7819 22.4304 32.7309 23.134 33.0303 24.1009L34.3166 28.3332C34.4385 28.7287 34.8834 30.542 34.8029 30.9198C34.8029 36.5971 29.246 42.4999 22.4832 42.4999C14.7478 42.4999 8.46784 36.3244 8.2998 28.6472L8.31637 28.659C8.92579 29.1844 9.70797 29.5138 10.5765 29.5138H10.7233Z" fill="#F3E8C1"/>
</g>
<defs>
<clipPath id="clip0">
<rect width="42.6" height="42.5" fill="white"/>
</clipPath>
</defs>
</svg>
