<svg width="18" height="27" viewBox="0 0 18 27" fill="none" xmlns="http://www.w3.org/2000/svg">
<path d="M0.170455 27V0.818181H9.01705C11.071 0.818181 12.75 1.18892 14.054 1.9304C15.3665 2.66335 16.3381 3.65625 16.9688 4.90909C17.5994 6.16193 17.9148 7.55966 17.9148 9.10227C17.9148 10.6449 17.5994 12.0469 16.9688 13.3082C16.3466 14.5696 15.3835 15.5753 14.0795 16.3253C12.7756 17.0668 11.1051 17.4375 9.06818 17.4375H2.72727V14.625H8.96591C10.3722 14.625 11.5014 14.3821 12.3537 13.8963C13.206 13.4105 13.8239 12.7543 14.2074 11.9276C14.5994 11.0923 14.7955 10.1506 14.7955 9.10227C14.7955 8.05398 14.5994 7.11648 14.2074 6.28977C13.8239 5.46307 13.2017 4.81534 12.3409 4.34659C11.4801 3.86932 10.3381 3.63068 8.91477 3.63068H3.34091V27H0.170455Z" fill="#4ACBE9"/>
</svg>
