<svg width="150" height="60" viewBox="0 0 150 60" fill="none" xmlns="http://www.w3.org/2000/svg">
<g id="Reset">
<path id="Rectangle 1" d="M0 20C0 8.9543 8.95431 0 20 0H130C141.046 0 150 8.95431 150 20V40C150 51.0457 141.046 60 130 60H20C8.9543 60 0 51.0457 0 40V20Z" fill="#90E1F3"/>
<path id="basic / refresh" d="M46.194 19.8043C45.5521 20.4458 44.5172 20.4367 43.8034 19.8762C41.5109 18.0762 38.6328 17 35.4916 17C28.0281 17 22 23.0413 22 30.5C22 37.9588 28.0281 44 35.4916 44C40.9901 44 45.6908 40.7203 47.7958 36.0136C48.2648 34.9651 47.4245 33.875 46.2759 33.875V33.875C45.5305 33.875 44.8796 34.3529 44.547 35.02C42.8906 38.3426 39.4578 40.625 35.4916 40.625C29.9024 40.625 25.3602 36.0856 25.3602 30.5C25.3602 24.9144 29.9024 20.375 35.4916 20.375C37.4856 20.375 39.3258 20.9643 40.8784 21.9666C41.921 22.6396 41.9075 24.088 41.0297 24.9653V24.9653C39.6095 26.3846 40.6147 28.8125 42.6226 28.8125H45.5391C47.4505 28.8125 49 27.263 49 25.3516V20.9671C49 19.5027 47.2298 18.7691 46.194 19.8043V19.8043Z" fill="#3F3F3F"/>
<path id="RESET" d="M68.99 38L65.255 31.5875H62.78V38H60.7325V22.3175H65.795C66.98 22.3175 67.9775 22.52 68.7875 22.925C69.6125 23.33 70.2275 23.8775 70.6325 24.5675C71.0375 25.2575 71.24 26.045 71.24 26.93C71.24 28.01 70.925 28.9625 70.295 29.7875C69.68 30.6125 68.75 31.16 67.505 31.43L71.4425 38H68.99ZM62.78 29.945H65.795C66.905 29.945 67.7375 29.675 68.2925 29.135C68.8475 28.58 69.125 27.845 69.125 26.93C69.125 26 68.8475 25.28 68.2925 24.77C67.7525 24.26 66.92 24.005 65.795 24.005H62.78V29.945ZM76.469 23.9825V29.225H82.184V30.9125H76.469V36.3125H82.859V38H74.4215V22.295H82.859V23.9825H76.469ZM90.9296 38.1575C89.8946 38.1575 88.9646 37.9775 88.1396 37.6175C87.3296 37.2425 86.6921 36.7325 86.2271 36.0875C85.7621 35.4275 85.5221 34.67 85.5071 33.815H87.6896C87.7646 34.55 88.0646 35.1725 88.5896 35.6825C89.1296 36.1775 89.9096 36.425 90.9296 36.425C91.9046 36.425 92.6696 36.185 93.2246 35.705C93.7946 35.21 94.0796 34.58 94.0796 33.815C94.0796 33.215 93.9146 32.7275 93.5846 32.3525C93.2546 31.9775 92.8421 31.6925 92.3471 31.4975C91.8521 31.3025 91.1846 31.0925 90.3446 30.8675C89.3096 30.5975 88.4771 30.3275 87.8471 30.0575C87.2321 29.7875 86.6996 29.3675 86.2496 28.7975C85.8146 28.2125 85.5971 27.4325 85.5971 26.4575C85.5971 25.6025 85.8146 24.845 86.2496 24.185C86.6846 23.525 87.2921 23.015 88.0721 22.655C88.8671 22.295 89.7746 22.115 90.7946 22.115C92.2646 22.115 93.4646 22.4825 94.3946 23.2175C95.3396 23.9525 95.8721 24.9275 95.9921 26.1425H93.7421C93.6671 25.5425 93.3521 25.0175 92.7971 24.5675C92.2421 24.1025 91.5071 23.87 90.5921 23.87C89.7371 23.87 89.0396 24.095 88.4996 24.545C87.9596 24.98 87.6896 25.595 87.6896 26.39C87.6896 26.96 87.8471 27.425 88.1621 27.785C88.4921 28.145 88.8896 28.4225 89.3546 28.6175C89.8346 28.7975 90.5021 29.0075 91.3571 29.2475C92.3921 29.5325 93.2246 29.8175 93.8546 30.1025C94.4846 30.3725 95.0246 30.8 95.4746 31.385C95.9246 31.955 96.1496 32.735 96.1496 33.725C96.1496 34.49 95.9471 35.21 95.5421 35.885C95.1371 36.56 94.5371 37.1075 93.7421 37.5275C92.9471 37.9475 92.0096 38.1575 90.9296 38.1575ZM101.21 23.9825V29.225H106.925V30.9125H101.21V36.3125H107.6V38H99.1627V22.295H107.6V23.9825H101.21ZM120.351 22.3175V23.9825H116.076V38H114.028V23.9825H109.731V22.3175H120.351Z" fill="#313637"/>
</g>
</svg>
