<svg width="150" height="60" viewBox="0 0 150 60" fill="none" xmlns="http://www.w3.org/2000/svg">
<g id="stop">
<rect id="Rectangle-1" width="150" height="60" rx="20" fill="#C4C4C4"/>
<path id="Polygon 2" d="M48.5 27.9019C50.5 29.0566 50.5 31.9434 48.5 33.0981L31.25 43.0574C29.25 44.2121 26.75 42.7687 26.75 40.4593V20.5407C26.75 18.2313 29.25 16.7879 31.25 17.9426L48.5 27.9019Z" fill="#373737"/>
<path id="STOP" d="M69.705 38.1575C68.67 38.1575 67.74 37.9775 66.915 37.6175C66.105 37.2425 65.4675 36.7325 65.0025 36.0875C64.5375 35.4275 64.2975 34.67 64.2825 33.815H66.465C66.54 34.55 66.84 35.1725 67.365 35.6825C67.905 36.1775 68.685 36.425 69.705 36.425C70.68 36.425 71.445 36.185 72 35.705C72.57 35.21 72.855 34.58 72.855 33.815C72.855 33.215 72.69 32.7275 72.36 32.3525C72.03 31.9775 71.6175 31.6925 71.1225 31.4975C70.6275 31.3025 69.96 31.0925 69.12 30.8675C68.085 30.5975 67.2525 30.3275 66.6225 30.0575C66.0075 29.7875 65.475 29.3675 65.025 28.7975C64.59 28.2125 64.3725 27.4325 64.3725 26.4575C64.3725 25.6025 64.59 24.845 65.025 24.185C65.46 23.525 66.0675 23.015 66.8475 22.655C67.6425 22.295 68.55 22.115 69.57 22.115C71.04 22.115 72.24 22.4825 73.17 23.2175C74.115 23.9525 74.6475 24.9275 74.7675 26.1425H72.5175C72.4425 25.5425 72.1275 25.0175 71.5725 24.5675C71.0175 24.1025 70.2825 23.87 69.3675 23.87C68.5125 23.87 67.815 24.095 67.275 24.545C66.735 24.98 66.465 25.595 66.465 26.39C66.465 26.96 66.6225 27.425 66.9375 27.785C67.2675 28.145 67.665 28.4225 68.13 28.6175C68.61 28.7975 69.2775 29.0075 70.1325 29.2475C71.1675 29.5325 72 29.8175 72.63 30.1025C73.26 30.3725 73.8 30.8 74.25 31.385C74.7 31.955 74.925 32.735 74.925 33.725C74.925 34.49 74.7225 35.21 74.3175 35.885C73.9125 36.56 73.3125 37.1075 72.5175 37.5275C71.7225 37.9475 70.785 38.1575 69.705 38.1575ZM87.5906 22.3175V23.9825H83.3156V38H81.2681V23.9825H76.9706V22.3175H87.5906ZM97.2209 38.1575C95.7659 38.1575 94.4384 37.82 93.2384 37.145C92.0384 36.455 91.0859 35.5025 90.3809 34.2875C89.6909 33.0575 89.3459 31.6775 89.3459 30.1475C89.3459 28.6175 89.6909 27.245 90.3809 26.03C91.0859 24.8 92.0384 23.8475 93.2384 23.1725C94.4384 22.4825 95.7659 22.1375 97.2209 22.1375C98.6909 22.1375 100.026 22.4825 101.226 23.1725C102.426 23.8475 103.371 24.7925 104.061 26.0075C104.751 27.2225 105.096 28.6025 105.096 30.1475C105.096 31.6925 104.751 33.0725 104.061 34.2875C103.371 35.5025 102.426 36.455 101.226 37.145C100.026 37.82 98.6909 38.1575 97.2209 38.1575ZM97.2209 36.38C98.3159 36.38 99.2984 36.125 100.168 35.615C101.053 35.105 101.743 34.3775 102.238 33.4325C102.748 32.4875 103.003 31.3925 103.003 30.1475C103.003 28.8875 102.748 27.7925 102.238 26.8625C101.743 25.9175 101.061 25.19 100.191 24.68C99.3209 24.17 98.3309 23.915 97.2209 23.915C96.1109 23.915 95.1209 24.17 94.2509 24.68C93.3809 25.19 92.6909 25.9175 92.1809 26.8625C91.6859 27.7925 91.4384 28.8875 91.4384 30.1475C91.4384 31.3925 91.6859 32.4875 92.1809 33.4325C92.6909 34.3775 93.3809 35.105 94.2509 35.615C95.1359 36.125 96.1259 36.38 97.2209 36.38ZM118.284 26.9075C118.284 28.2125 117.834 29.3 116.934 30.17C116.049 31.025 114.691 31.4525 112.861 31.4525H109.846V38H107.799V22.3175H112.861C114.631 22.3175 115.974 22.745 116.889 23.6C117.819 24.455 118.284 25.5575 118.284 26.9075ZM112.861 29.765C114.001 29.765 114.841 29.5175 115.381 29.0225C115.921 28.5275 116.191 27.8225 116.191 26.9075C116.191 24.9725 115.081 24.005 112.861 24.005H109.846V29.765H112.861Z" fill="#313637"/>
</g>
</svg>
