<svg width="150" height="60" viewBox="0 0 150 60" fill="none" xmlns="http://www.w3.org/2000/svg">
<g id="Start ">
<path id="Rectangle 1" d="M0 20C0 8.9543 8.95431 0 20 0H130C141.046 0 150 8.95431 150 20V40C150 51.0457 141.046 60 130 60H20C8.9543 60 0 51.0457 0 40V20Z" fill="#90E1F3"/>
<path id="Polygon 1" d="M45.9257 25.7831C49.2524 27.4214 49.2808 32.1546 45.9741 33.8328L28.5365 42.6826C25.543 44.2019 22 42.0268 22 38.6698V21.2323C22 17.8989 25.4978 15.7226 28.4882 17.1953L45.9257 25.7831Z" fill="#3F3F3F"/>
<path id="START" d="M65.705 38.1575C64.67 38.1575 63.74 37.9775 62.915 37.6175C62.105 37.2425 61.4675 36.7325 61.0025 36.0875C60.5375 35.4275 60.2975 34.67 60.2825 33.815H62.465C62.54 34.55 62.84 35.1725 63.365 35.6825C63.905 36.1775 64.685 36.425 65.705 36.425C66.68 36.425 67.445 36.185 68 35.705C68.57 35.21 68.855 34.58 68.855 33.815C68.855 33.215 68.69 32.7275 68.36 32.3525C68.03 31.9775 67.6175 31.6925 67.1225 31.4975C66.6275 31.3025 65.96 31.0925 65.12 30.8675C64.085 30.5975 63.2525 30.3275 62.6225 30.0575C62.0075 29.7875 61.475 29.3675 61.025 28.7975C60.59 28.2125 60.3725 27.4325 60.3725 26.4575C60.3725 25.6025 60.59 24.845 61.025 24.185C61.46 23.525 62.0675 23.015 62.8475 22.655C63.6425 22.295 64.55 22.115 65.57 22.115C67.04 22.115 68.24 22.4825 69.17 23.2175C70.115 23.9525 70.6475 24.9275 70.7675 26.1425H68.5175C68.4425 25.5425 68.1275 25.0175 67.5725 24.5675C67.0175 24.1025 66.2825 23.87 65.3675 23.87C64.5125 23.87 63.815 24.095 63.275 24.545C62.735 24.98 62.465 25.595 62.465 26.39C62.465 26.96 62.6225 27.425 62.9375 27.785C63.2675 28.145 63.665 28.4225 64.13 28.6175C64.61 28.7975 65.2775 29.0075 66.1325 29.2475C67.1675 29.5325 68 29.8175 68.63 30.1025C69.26 30.3725 69.8 30.8 70.25 31.385C70.7 31.955 70.925 32.735 70.925 33.725C70.925 34.49 70.7225 35.21 70.3175 35.885C69.9125 36.56 69.3125 37.1075 68.5175 37.5275C67.7225 37.9475 66.785 38.1575 65.705 38.1575ZM83.5906 22.3175V23.9825H79.3156V38H77.2681V23.9825H72.9706V22.3175H83.5906ZM95.3809 34.5125H88.5409L87.2809 38H85.1209L90.7909 22.4075H93.1534L98.8009 38H96.6409L95.3809 34.5125ZM94.7959 32.8475L91.9609 24.9275L89.1259 32.8475H94.7959ZM109.53 38L105.795 31.5875H103.32V38H101.272V22.3175H106.335C107.52 22.3175 108.517 22.52 109.327 22.925C110.152 23.33 110.767 23.8775 111.172 24.5675C111.577 25.2575 111.78 26.045 111.78 26.93C111.78 28.01 111.465 28.9625 110.835 29.7875C110.22 30.6125 109.29 31.16 108.045 31.43L111.982 38H109.53ZM103.32 29.945H106.335C107.445 29.945 108.277 29.675 108.832 29.135C109.387 28.58 109.665 27.845 109.665 26.93C109.665 26 109.387 25.28 108.832 24.77C108.292 24.26 107.46 24.005 106.335 24.005H103.32V29.945ZM124.614 22.3175V23.9825H120.339V38H118.291V23.9825H113.994V22.3175H124.614Z" fill="#313637"/>
</g>
</svg>

